#!OML:ASF E:\Style4\Style4.ASF
:FULLY-SPECIFIED
:DEGREES
2560
root 0.238345 17.2466 -1.82739 -2.31571 -0.919761 2.45499
lowerback 9.25836 2.61191 -1.03442
upperback 4.51598 3.38395 0.374306
thorax -0.584475 1.67299 0.640513
lowerneck -2.04406 -5.35982 -6.15479
upperneck 7.29113 -7.09336 2.99759
head 3.07722 -3.59601 1.79995
rclavicle -1.32192e-014 -1.59028e-015
rhumerus 44.7679 9.20833 -71.888
rradius 20.3137
rwrist 32.4769
rhand -35.7858 34.7659
rfingers 7.12502
rthumb -8.90309 4.97378
lclavicle -1.32192e-014 -1.59028e-015
lhumerus 45.4616 -24.6746 66.2348
lradius 31.5035
lwrist -26.5858
lhand -29.4671 23.0164
lfingers 7.12502
lthumb -2.80277 52.9778
rfemur -19.1504 1.57792 14.8919
rtibia 44.8091
rfoot -21.9277 -10.8394
rtoes -13.2807
lfemur -17.771 -0.405456 -22.011
ltibia 43.0079
lfoot -22.834 6.38542
ltoes -12.5176
2561
root 0.236483 17.2473 -1.82659 -2.29283 -0.91915 2.45334
lowerback 9.23147 2.60758 -1.03329
upperback 4.48993 3.37888 0.393914
thorax -0.597769 1.67044 0.661035
lowerneck -2.07211 -5.33744 -6.23014
upperneck 7.33726 -7.05993 3.01362
head 3.10114 -3.58116 1.81902
rclavicle 4.35338e-014 -1.63003e-014
rhumerus 44.7234 9.14342 -71.985
rradius 20.2626
rwrist 32.6161
rhand -35.7629 34.8785
rfingers 7.12502
rthumb -8.88105 5.08544
lclavicle 4.35338e-014 -1.63003e-014
lhumerus 45.3552 -24.4888 66.5581
lradius 31.3999
lwrist -26.8593
lhand -29.424 22.9519
lfingers 7.12502
lthumb -2.76123 52.9138
rfemur -19.176 1.58355 14.8974
rtibia 44.8135
rfoot -21.9349 -10.8073
rtoes -13.2191
lfemur -17.7864 -0.425229 -22.0032
ltibia 43
lfoot -22.8492 6.52446
ltoes -13.1709
2562
root 0.233857 17.2468 -1.82553 -2.30259 -0.927218 2.48179
lowerback 9.2916 2.60896 -1.06668
upperback 4.44278 3.37705 0.392743
thorax -0.681265 1.66954 0.674339
lowerneck -2.07347 -5.31871 -6.19654
upperneck 7.35893 -7.03434 2.98148
head 3.10416 -3.56869 1.80331
rclavicle 3.89618e-014 -2.14687e-014
rhumerus 44.6554 9.08642 -72.0739
rradius 20.2158
rwrist 32.6733
rhand -35.6812 35.0482
rfingers 7.12502
rthumb -8.80218 5.25177
lclavicle 3.89618e-014 -2.14687e-014
lhumerus 45.1908 -24.3845 66.7616
lradius 31.3863
lwrist -27.0912
lhand -29.3576 22.9287
lfingers 7.12502
lthumb -2.69707 52.8914
rfemur -19.1657 1.58979 14.8754
rtibia 44.8115
rfoot -21.9181 -10.8118
rtoes -13.2717
lfemur -17.7661 -0.428049 -22.0261
ltibia 42.9989
lfoot -22.8408 6.5223
ltoes -13.168
2563
root 0.230725 17.2463 -1.82477 -2.33609 -0.91802 2.48146
lowerback 9.35567 2.61696 -1.0564
upperback 4.42205 3.38755 0.387726
thorax -0.737127 1.67522 0.658724
lowerneck -2.08624 -5.32273 -6.1097
upperneck 7.34671 -7.03898 2.92692
head 3.09552 -3.57007 1.7694
rclavicle -2.50469e-014 -1.59028e-015
rhumerus 44.6008 8.98118 -72.1698
rradius 20.1787
rwrist 32.7615
rhand -35.6538 35.0499
rfingers 7.12502
rthumb -8.77569 5.25239
lclavicle -2.50469e-014 -1.59028e-015
lhumerus 45.0927 -24.3246 66.9322
lradius 31.3533
lwrist -27.2144
lhand -29.3206 22.779
lfingers 7.12502
lthumb -2.66133 52.7422
rfemur -19.1122 1.60308 14.8875
rtibia 44.805
rfoot -21.9313 -10.8017
rtoes -13.184
lfemur -17.7245 -0.437565 -22.0136
ltibia 42.9911
lfoot -22.8284 6.44284
ltoes -12.6234
2564
root 0.228805 17.2462 -1.82415 -2.34395 -0.901396 2.42501
lowerback 9.32299 2.603 -0.972051
upperback 4.43616 3.37656 0.390749
thorax -0.699883 1.67065 0.617888
lowerneck -2.1239 -5.32976 -6.08722
upperneck 7.34604 -7.04856 2.94351
head 3.10258 -3.57339 1.76959
rclavicle -5.40694e-014 2.62396e-014
rhumerus 44.5754 9.06683 -72.0274
rradius 20.2536
rwrist 32.5826
rhand -35.7492 34.8788
rfingers 7.12502
rthumb -8.86777 5.08516
lclavicle -5.40694e-014 2.62396e-014
lhumerus 45.0873 -24.3125 66.8796
lradius 31.3674
lwrist -27.118
lhand -29.379 22.7949
lfingers 7.12502
lthumb -2.71769 52.7574
rfemur -19.089 1.60367 14.9652
rtibia 44.7914
rfoot -21.9221 -10.8719
rtoes -13.3858
lfemur -17.7027 -0.486136 -21.942
ltibia 42.9721
lfoot -22.8365 6.34459
ltoes -11.9771
2565
root 0.226215 17.2471 -1.82386 -2.33667 -0.87397 2.45212
lowerback 9.28667 2.58943 -0.983242
upperback 4.43133 3.35779 0.367131
thorax -0.683864 1.66135 0.603298
lowerneck -2.09666 -5.32742 -6.05798
upperneck 7.31148 -7.04972 2.96592
head 3.08533 -3.57247 1.77276
rclavicle 1.05356e-014 1.19271e-014
rhumerus 44.5293 9.18893 -71.8567
rradius 20.3291
rwrist 32.3862
rhand -35.8127 34.6161
rfingers 7.12502
rthumb -8.92907 4.82502
lclavicle 1.05356e-014 1.19271e-014
lhumerus 45.1379 -24.457 66.5529
lradius 31.4637
lwrist -26.7729
lhand -29.4363 23.1041
lfingers 7.12502
lthumb -2.77312 53.0658
rfemur -19.0859 1.60061 14.9462
rtibia 44.7794
rfoot -21.9594 -10.8759
rtoes -13.1882
lfemur -17.6984 -0.508244 -21.9624
ltibia 42.9504
lfoot -22.8718 6.34305
ltoes -12.1292
